<svg width="1440" height="362" viewBox="0 0 1440 362" fill="none" xmlns="http://www.w3.org/2000/svg">
<path d="M681 197.918C656.938 191.583 645.226 184.047 622 166.359C598.774 148.671 491.651 66.5581 482.046 60.7083C456.864 45.3706 440.817 38.2846 410.698 36.0106C380.578 33.7367 155.488 36.0106 155.488 36.0106H-2" stroke="url(#paint0_linear_3218_8222)" stroke-width="2.74419"/>
<path d="M681 196.907C656.938 203.241 645.226 210.777 622 228.466C598.774 246.154 491.651 328.267 482.046 334.116C456.864 349.454 440.817 356.54 410.698 358.814C380.578 361.088 155.488 358.814 155.488 358.814H-9.5L-50.5 276" stroke="url(#paint1_linear_3218_8222)" stroke-width="2.74419"/>
<path d="M1442 196.907H679.628C472.795 196.907 356.833 196.907 150 196.907H-7" stroke="url(#paint2_linear_3218_8222)" stroke-width="2.74419"/>
<g opacity="0.54" filter="url(#filter1_f_3218_8222)">
<circle cx="701.5" cy="197" r="42.5" fill="#527DE4"/>
</g>
<path d="M165 19H163.544L157.688 10.12V19H156.232V7.832H157.688L163.544 16.696V7.832H165V19ZM166.938 14.584C166.938 13.688 167.119 12.904 167.482 12.232C167.845 11.5493 168.341 11.0213 168.97 10.648C169.61 10.2747 170.319 10.088 171.098 10.088C171.866 10.088 172.533 10.2533 173.098 10.584C173.663 10.9147 174.085 11.3307 174.362 11.832V10.232H175.834V19H174.362V17.368C174.074 17.88 173.642 18.3067 173.066 18.648C172.501 18.9787 171.839 19.144 171.082 19.144C170.303 19.144 169.599 18.952 168.97 18.568C168.341 18.184 167.845 17.6453 167.482 16.952C167.119 16.2587 166.938 15.4693 166.938 14.584ZM174.362 14.6C174.362 13.9387 174.229 13.3627 173.962 12.872C173.695 12.3813 173.333 12.008 172.874 11.752C172.426 11.4853 171.93 11.352 171.386 11.352C170.842 11.352 170.346 11.48 169.898 11.736C169.45 11.992 169.093 12.3653 168.826 12.856C168.559 13.3467 168.426 13.9227 168.426 14.584C168.426 15.256 168.559 15.8427 168.826 16.344C169.093 16.8347 169.45 17.2133 169.898 17.48C170.346 17.736 170.842 17.864 171.386 17.864C171.93 17.864 172.426 17.736 172.874 17.48C173.333 17.2133 173.695 16.8347 173.962 16.344C174.229 15.8427 174.362 15.2613 174.362 14.6ZM179.751 11.656C180.007 11.1547 180.369 10.7653 180.839 10.488C181.319 10.2107 181.9 10.072 182.583 10.072V11.576H182.199C180.567 11.576 179.751 12.4613 179.751 14.232V19H178.295V10.232H179.751V11.656ZM185.719 11.656C185.975 11.1547 186.338 10.7653 186.807 10.488C187.287 10.2107 187.869 10.072 188.551 10.072V11.576H188.167C186.535 11.576 185.719 12.4613 185.719 14.232V19H184.263V10.232H185.719V11.656ZM189.688 14.584C189.688 13.688 189.869 12.904 190.232 12.232C190.595 11.5493 191.091 11.0213 191.72 10.648C192.36 10.2747 193.069 10.088 193.848 10.088C194.616 10.088 195.283 10.2533 195.848 10.584C196.413 10.9147 196.835 11.3307 197.112 11.832V10.232H198.584V19H197.112V17.368C196.824 17.88 196.392 18.3067 195.816 18.648C195.251 18.9787 194.589 19.144 193.832 19.144C193.053 19.144 192.349 18.952 191.72 18.568C191.091 18.184 190.595 17.6453 190.232 16.952C189.869 16.2587 189.688 15.4693 189.688 14.584ZM197.112 14.6C197.112 13.9387 196.979 13.3627 196.712 12.872C196.445 12.3813 196.083 12.008 195.624 11.752C195.176 11.4853 194.68 11.352 194.136 11.352C193.592 11.352 193.096 11.48 192.648 11.736C192.2 11.992 191.843 12.3653 191.576 12.856C191.309 13.3467 191.176 13.9227 191.176 14.584C191.176 15.256 191.309 15.8427 191.576 16.344C191.843 16.8347 192.2 17.2133 192.648 17.48C193.096 17.736 193.592 17.864 194.136 17.864C194.68 17.864 195.176 17.736 195.624 17.48C196.083 17.2133 196.445 16.8347 196.712 16.344C196.979 15.8427 197.112 15.2613 197.112 14.6ZM202.821 11.432V16.6C202.821 17.0267 202.911 17.3307 203.093 17.512C203.274 17.6827 203.589 17.768 204.036 17.768H205.109V19H203.797C202.986 19 202.378 18.8133 201.973 18.44C201.567 18.0667 201.365 17.4533 201.365 16.6V11.432H200.229V10.232H201.365V8.024H202.821V10.232H205.109V11.432H202.821ZM207.625 8.808C207.347 8.808 207.113 8.712 206.921 8.52C206.729 8.328 206.633 8.09333 206.633 7.816C206.633 7.53867 206.729 7.304 206.921 7.112C207.113 6.92 207.347 6.824 207.625 6.824C207.891 6.824 208.115 6.92 208.297 7.112C208.489 7.304 208.585 7.53867 208.585 7.816C208.585 8.09333 208.489 8.328 208.297 8.52C208.115 8.712 207.891 8.808 207.625 8.808ZM208.329 10.232V19H206.873V10.232H208.329ZM214.074 17.656L216.794 10.232H218.346L214.906 19H213.21L209.77 10.232H211.338L214.074 17.656ZM227.779 14.28C227.779 14.5573 227.763 14.8507 227.731 15.16H220.723C220.776 16.024 221.07 16.7013 221.603 17.192C222.147 17.672 222.803 17.912 223.571 17.912C224.2 17.912 224.723 17.768 225.139 17.48C225.566 17.1813 225.864 16.7867 226.035 16.296H227.603C227.368 17.1387 226.899 17.8267 226.195 18.36C225.491 18.8827 224.616 19.144 223.571 19.144C222.739 19.144 221.992 18.9573 221.331 18.584C220.68 18.2107 220.168 17.6827 219.795 17C219.422 16.3067 219.235 15.5067 219.235 14.6C219.235 13.6933 219.416 12.8987 219.779 12.216C220.142 11.5333 220.648 11.0107 221.299 10.648C221.96 10.2747 222.718 10.088 223.571 10.088C224.403 10.088 225.139 10.2693 225.779 10.632C226.419 10.9947 226.91 11.496 227.251 12.136C227.603 12.7653 227.779 13.48 227.779 14.28ZM226.275 13.976C226.275 13.4213 226.152 12.9467 225.907 12.552C225.662 12.1467 225.326 11.8427 224.899 11.64C224.483 11.4267 224.019 11.32 223.507 11.32C222.771 11.32 222.142 11.5547 221.619 12.024C221.107 12.4933 220.814 13.144 220.739 13.976H226.275ZM243.182 7.848L238.974 19H237.294L233.086 7.848H234.638L238.142 17.464L241.646 7.848H243.182ZM252.779 14.28C252.779 14.5573 252.763 14.8507 252.731 15.16H245.723C245.776 16.024 246.07 16.7013 246.603 17.192C247.147 17.672 247.803 17.912 248.571 17.912C249.2 17.912 249.723 17.768 250.139 17.48C250.566 17.1813 250.864 16.7867 251.035 16.296H252.603C252.368 17.1387 251.899 17.8267 251.195 18.36C250.491 18.8827 249.616 19.144 248.571 19.144C247.739 19.144 246.992 18.9573 246.331 18.584C245.68 18.2107 245.168 17.6827 244.795 17C244.422 16.3067 244.235 15.5067 244.235 14.6C244.235 13.6933 244.416 12.8987 244.779 12.216C245.142 11.5333 245.648 11.0107 246.299 10.648C246.96 10.2747 247.718 10.088 248.571 10.088C249.403 10.088 250.139 10.2693 250.779 10.632C251.419 10.9947 251.91 11.496 252.251 12.136C252.603 12.7653 252.779 13.48 252.779 14.28ZM251.275 13.976C251.275 13.4213 251.152 12.9467 250.907 12.552C250.662 12.1467 250.326 11.8427 249.899 11.64C249.483 11.4267 249.019 11.32 248.507 11.32C247.771 11.32 247.142 11.5547 246.619 12.024C246.107 12.4933 245.814 13.144 245.739 13.976H251.275ZM256.157 7.16V19H254.701V7.16H256.157ZM262.462 19.144C261.641 19.144 260.894 18.9573 260.222 18.584C259.561 18.2107 259.038 17.6827 258.654 17C258.281 16.3067 258.094 15.5067 258.094 14.6C258.094 13.704 258.286 12.9147 258.67 12.232C259.065 11.5387 259.598 11.0107 260.27 10.648C260.942 10.2747 261.694 10.088 262.526 10.088C263.358 10.088 264.11 10.2747 264.782 10.648C265.454 11.0107 265.982 11.5333 266.366 12.216C266.761 12.8987 266.958 13.6933 266.958 14.6C266.958 15.5067 266.756 16.3067 266.35 17C265.956 17.6827 265.417 18.2107 264.734 18.584C264.052 18.9573 263.294 19.144 262.462 19.144ZM262.462 17.864C262.985 17.864 263.476 17.7413 263.934 17.496C264.393 17.2507 264.761 16.8827 265.038 16.392C265.326 15.9013 265.47 15.304 265.47 14.6C265.47 13.896 265.332 13.2987 265.054 12.808C264.777 12.3173 264.414 11.9547 263.966 11.72C263.518 11.4747 263.033 11.352 262.51 11.352C261.977 11.352 261.486 11.4747 261.038 11.72C260.601 11.9547 260.249 12.3173 259.982 12.808C259.716 13.2987 259.582 13.896 259.582 14.6C259.582 15.3147 259.71 15.9173 259.966 16.408C260.233 16.8987 260.585 17.2667 261.022 17.512C261.46 17.7467 261.94 17.864 262.462 17.864ZM268.329 14.6C268.329 13.6933 268.51 12.904 268.873 12.232C269.235 11.5493 269.737 11.0213 270.377 10.648C271.027 10.2747 271.769 10.088 272.601 10.088C273.678 10.088 274.563 10.3493 275.257 10.872C275.961 11.3947 276.425 12.12 276.649 13.048H275.081C274.931 12.5147 274.638 12.0933 274.201 11.784C273.774 11.4747 273.241 11.32 272.601 11.32C271.769 11.32 271.097 11.608 270.585 12.184C270.073 12.7493 269.817 13.5547 269.817 14.6C269.817 15.656 270.073 16.472 270.585 17.048C271.097 17.624 271.769 17.912 272.601 17.912C273.241 17.912 273.774 17.7627 274.201 17.464C274.627 17.1653 274.921 16.7387 275.081 16.184H276.649C276.414 17.08 275.945 17.8 275.241 18.344C274.537 18.8773 273.657 19.144 272.601 19.144C271.769 19.144 271.027 18.9573 270.377 18.584C269.737 18.2107 269.235 17.6827 268.873 17C268.51 16.3173 268.329 15.5173 268.329 14.6ZM279.343 8.808C279.066 8.808 278.831 8.712 278.639 8.52C278.447 8.328 278.351 8.09333 278.351 7.816C278.351 7.53867 278.447 7.304 278.639 7.112C278.831 6.92 279.066 6.824 279.343 6.824C279.61 6.824 279.834 6.92 280.015 7.112C280.207 7.304 280.303 7.53867 280.303 7.816C280.303 8.09333 280.207 8.328 280.015 8.52C279.834 8.712 279.61 8.808 279.343 8.808ZM280.047 10.232V19H278.591V10.232H280.047ZM284.305 11.432V16.6C284.305 17.0267 284.396 17.3307 284.577 17.512C284.758 17.6827 285.073 17.768 285.521 17.768H286.593V19H285.281C284.47 19 283.862 18.8133 283.457 18.44C283.052 18.0667 282.849 17.4533 282.849 16.6V11.432H281.713V10.232H282.849V8.024H284.305V10.232H286.593V11.432H284.305ZM295.909 10.232L290.629 23.128H289.125L290.853 18.904L287.317 10.232H288.933L291.685 17.336L294.405 10.232H295.909Z" fill="#808080"/>
<path d="M161.288 182.112C160.253 182.112 159.309 181.872 158.456 181.392C157.603 180.901 156.925 180.224 156.424 179.36C155.933 178.485 155.688 177.504 155.688 176.416C155.688 175.328 155.933 174.352 156.424 173.488C156.925 172.613 157.603 171.936 158.456 171.456C159.309 170.965 160.253 170.72 161.288 170.72C162.333 170.72 163.283 170.965 164.136 171.456C164.989 171.936 165.661 172.608 166.152 173.472C166.643 174.336 166.888 175.317 166.888 176.416C166.888 177.515 166.643 178.496 166.152 179.36C165.661 180.224 164.989 180.901 164.136 181.392C163.283 181.872 162.333 182.112 161.288 182.112ZM161.288 180.848C162.067 180.848 162.765 180.667 163.384 180.304C164.013 179.941 164.504 179.424 164.856 178.752C165.219 178.08 165.4 177.301 165.4 176.416C165.4 175.52 165.219 174.741 164.856 174.08C164.504 173.408 164.019 172.891 163.4 172.528C162.781 172.165 162.077 171.984 161.288 171.984C160.499 171.984 159.795 172.165 159.176 172.528C158.557 172.891 158.067 173.408 157.704 174.08C157.352 174.741 157.176 175.52 157.176 176.416C157.176 177.301 157.352 178.08 157.704 178.752C158.067 179.424 158.557 179.941 159.176 180.304C159.805 180.667 160.509 180.848 161.288 180.848ZM170.266 174.848C170.554 174.347 170.981 173.931 171.546 173.6C172.122 173.259 172.789 173.088 173.546 173.088C174.325 173.088 175.029 173.275 175.658 173.648C176.298 174.021 176.799 174.549 177.162 175.232C177.525 175.904 177.706 176.688 177.706 177.584C177.706 178.469 177.525 179.259 177.162 179.952C176.799 180.645 176.298 181.184 175.658 181.568C175.029 181.952 174.325 182.144 173.546 182.144C172.799 182.144 172.138 181.979 171.562 181.648C170.997 181.307 170.565 180.885 170.266 180.384V186.16H168.81V173.232H170.266V174.848ZM176.218 177.584C176.218 176.923 176.085 176.347 175.818 175.856C175.551 175.365 175.189 174.992 174.73 174.736C174.282 174.48 173.786 174.352 173.242 174.352C172.709 174.352 172.213 174.485 171.754 174.752C171.306 175.008 170.943 175.387 170.666 175.888C170.399 176.379 170.266 176.949 170.266 177.6C170.266 178.261 170.399 178.843 170.666 179.344C170.943 179.835 171.306 180.213 171.754 180.48C172.213 180.736 172.709 180.864 173.242 180.864C173.786 180.864 174.282 180.736 174.73 180.48C175.189 180.213 175.551 179.835 175.818 179.344C176.085 178.843 176.218 178.256 176.218 177.584ZM181.399 174.432V179.6C181.399 180.027 181.489 180.331 181.671 180.512C181.852 180.683 182.167 180.768 182.615 180.768H183.687V182H182.375C181.564 182 180.956 181.813 180.551 181.44C180.145 181.067 179.943 180.453 179.943 179.6V174.432H178.807V173.232H179.943V171.024H181.399V173.232H183.687V174.432H181.399ZM186.203 171.808C185.925 171.808 185.691 171.712 185.499 171.52C185.307 171.328 185.211 171.093 185.211 170.816C185.211 170.539 185.307 170.304 185.499 170.112C185.691 169.92 185.925 169.824 186.203 169.824C186.469 169.824 186.693 169.92 186.875 170.112C187.067 170.304 187.163 170.539 187.163 170.816C187.163 171.093 187.067 171.328 186.875 171.52C186.693 171.712 186.469 171.808 186.203 171.808ZM186.907 173.232V182H185.451V173.232H186.907ZM193.212 182.144C192.391 182.144 191.644 181.957 190.972 181.584C190.311 181.211 189.788 180.683 189.404 180C189.031 179.307 188.844 178.507 188.844 177.6C188.844 176.704 189.036 175.915 189.42 175.232C189.815 174.539 190.348 174.011 191.02 173.648C191.692 173.275 192.444 173.088 193.276 173.088C194.108 173.088 194.86 173.275 195.532 173.648C196.204 174.011 196.732 174.533 197.116 175.216C197.511 175.899 197.708 176.693 197.708 177.6C197.708 178.507 197.506 179.307 197.1 180C196.706 180.683 196.167 181.211 195.484 181.584C194.802 181.957 194.044 182.144 193.212 182.144ZM193.212 180.864C193.735 180.864 194.226 180.741 194.684 180.496C195.143 180.251 195.511 179.883 195.788 179.392C196.076 178.901 196.22 178.304 196.22 177.6C196.22 176.896 196.082 176.299 195.804 175.808C195.527 175.317 195.164 174.955 194.716 174.72C194.268 174.475 193.783 174.352 193.26 174.352C192.727 174.352 192.236 174.475 191.788 174.72C191.351 174.955 190.999 175.317 190.732 175.808C190.466 176.299 190.332 176.896 190.332 177.6C190.332 178.315 190.46 178.917 190.716 179.408C190.983 179.899 191.335 180.267 191.772 180.512C192.21 180.747 192.69 180.864 193.212 180.864ZM203.895 173.072C204.961 173.072 205.825 173.397 206.487 174.048C207.148 174.688 207.479 175.616 207.479 176.832V182H206.039V177.04C206.039 176.165 205.82 175.499 205.383 175.04C204.945 174.571 204.348 174.336 203.591 174.336C202.823 174.336 202.209 174.576 201.751 175.056C201.303 175.536 201.079 176.235 201.079 177.152V182H199.623V173.232H201.079V174.48C201.367 174.032 201.756 173.685 202.247 173.44C202.748 173.195 203.297 173.072 203.895 173.072ZM212.961 182.144C212.289 182.144 211.686 182.032 211.153 181.808C210.62 181.573 210.198 181.253 209.889 180.848C209.58 180.432 209.409 179.957 209.377 179.424H210.881C210.924 179.861 211.126 180.219 211.489 180.496C211.862 180.773 212.348 180.912 212.945 180.912C213.5 180.912 213.937 180.789 214.257 180.544C214.577 180.299 214.737 179.989 214.737 179.616C214.737 179.232 214.566 178.949 214.225 178.768C213.884 178.576 213.356 178.389 212.641 178.208C211.99 178.037 211.457 177.867 211.041 177.696C210.636 177.515 210.284 177.253 209.985 176.912C209.697 176.56 209.553 176.101 209.553 175.536C209.553 175.088 209.686 174.677 209.953 174.304C210.22 173.931 210.598 173.637 211.089 173.424C211.58 173.2 212.14 173.088 212.769 173.088C213.74 173.088 214.524 173.333 215.121 173.824C215.718 174.315 216.038 174.987 216.081 175.84H214.625C214.593 175.381 214.406 175.013 214.065 174.736C213.734 174.459 213.286 174.32 212.721 174.32C212.198 174.32 211.782 174.432 211.473 174.656C211.164 174.88 211.009 175.173 211.009 175.536C211.009 175.824 211.1 176.064 211.281 176.256C211.473 176.437 211.708 176.587 211.985 176.704C212.273 176.811 212.668 176.933 213.169 177.072C213.798 177.243 214.31 177.413 214.705 177.584C215.1 177.744 215.436 177.989 215.713 178.32C216.001 178.651 216.15 179.083 216.161 179.616C216.161 180.096 216.028 180.528 215.761 180.912C215.494 181.296 215.116 181.6 214.625 181.824C214.145 182.037 213.59 182.144 212.961 182.144ZM228.786 170.848V172.032H223.938V175.792H227.874V176.976H223.938V182H222.482V170.848H228.786ZM232.001 170.16V182H230.545V170.16H232.001ZM238.306 182.144C237.485 182.144 236.738 181.957 236.066 181.584C235.405 181.211 234.882 180.683 234.498 180C234.125 179.307 233.938 178.507 233.938 177.6C233.938 176.704 234.13 175.915 234.514 175.232C234.909 174.539 235.442 174.011 236.114 173.648C236.786 173.275 237.538 173.088 238.37 173.088C239.202 173.088 239.954 173.275 240.626 173.648C241.298 174.011 241.826 174.533 242.21 175.216C242.605 175.899 242.802 176.693 242.802 177.6C242.802 178.507 242.599 179.307 242.194 180C241.799 180.683 241.261 181.211 240.578 181.584C239.895 181.957 239.138 182.144 238.306 182.144ZM238.306 180.864C238.829 180.864 239.319 180.741 239.778 180.496C240.237 180.251 240.605 179.883 240.882 179.392C241.17 178.901 241.314 178.304 241.314 177.6C241.314 176.896 241.175 176.299 240.898 175.808C240.621 175.317 240.258 174.955 239.81 174.72C239.362 174.475 238.877 174.352 238.354 174.352C237.821 174.352 237.33 174.475 236.882 174.72C236.445 174.955 236.093 175.317 235.826 175.808C235.559 176.299 235.426 176.896 235.426 177.6C235.426 178.315 235.554 178.917 235.81 179.408C236.077 179.899 236.429 180.267 236.866 180.512C237.303 180.747 237.783 180.864 238.306 180.864ZM256.396 173.232L253.66 182H252.156L250.044 175.04L247.932 182H246.428L243.676 173.232H245.164L247.18 180.592L249.356 173.232H250.844L252.972 180.608L254.956 173.232H256.396Z" fill="#808080"/>
<path d="M163.688 337.112C163.688 338.04 163.368 338.813 162.728 339.432C162.099 340.04 161.133 340.344 159.832 340.344H157.688V345H156.232V333.848H159.832C161.091 333.848 162.045 334.152 162.696 334.76C163.357 335.368 163.688 336.152 163.688 337.112ZM159.832 339.144C160.643 339.144 161.24 338.968 161.624 338.616C162.008 338.264 162.2 337.763 162.2 337.112C162.2 335.736 161.411 335.048 159.832 335.048H157.688V339.144H159.832ZM169.322 345.144C168.5 345.144 167.754 344.957 167.082 344.584C166.42 344.211 165.898 343.683 165.514 343C165.14 342.307 164.954 341.507 164.954 340.6C164.954 339.704 165.146 338.915 165.53 338.232C165.924 337.539 166.458 337.011 167.13 336.648C167.802 336.275 168.554 336.088 169.386 336.088C170.218 336.088 170.97 336.275 171.642 336.648C172.314 337.011 172.842 337.533 173.226 338.216C173.62 338.899 173.818 339.693 173.818 340.6C173.818 341.507 173.615 342.307 173.21 343C172.815 343.683 172.276 344.211 171.594 344.584C170.911 344.957 170.154 345.144 169.322 345.144ZM169.322 343.864C169.844 343.864 170.335 343.741 170.794 343.496C171.252 343.251 171.62 342.883 171.898 342.392C172.186 341.901 172.33 341.304 172.33 340.6C172.33 339.896 172.191 339.299 171.914 338.808C171.636 338.317 171.274 337.955 170.826 337.72C170.378 337.475 169.892 337.352 169.37 337.352C168.836 337.352 168.346 337.475 167.898 337.72C167.46 337.955 167.108 338.317 166.842 338.808C166.575 339.299 166.442 339.896 166.442 340.6C166.442 341.315 166.57 341.917 166.826 342.408C167.092 342.899 167.444 343.267 167.882 343.512C168.319 343.747 168.799 343.864 169.322 343.864ZM178.836 345.144C178.164 345.144 177.561 345.032 177.028 344.808C176.495 344.573 176.073 344.253 175.764 343.848C175.455 343.432 175.284 342.957 175.252 342.424H176.756C176.799 342.861 177.001 343.219 177.364 343.496C177.737 343.773 178.223 343.912 178.82 343.912C179.375 343.912 179.812 343.789 180.132 343.544C180.452 343.299 180.612 342.989 180.612 342.616C180.612 342.232 180.441 341.949 180.1 341.768C179.759 341.576 179.231 341.389 178.516 341.208C177.865 341.037 177.332 340.867 176.916 340.696C176.511 340.515 176.159 340.253 175.86 339.912C175.572 339.56 175.428 339.101 175.428 338.536C175.428 338.088 175.561 337.677 175.828 337.304C176.095 336.931 176.473 336.637 176.964 336.424C177.455 336.2 178.015 336.088 178.644 336.088C179.615 336.088 180.399 336.333 180.996 336.824C181.593 337.315 181.913 337.987 181.956 338.84H180.5C180.468 338.381 180.281 338.013 179.94 337.736C179.609 337.459 179.161 337.32 178.596 337.32C178.073 337.32 177.657 337.432 177.348 337.656C177.039 337.88 176.884 338.173 176.884 338.536C176.884 338.824 176.975 339.064 177.156 339.256C177.348 339.437 177.583 339.587 177.86 339.704C178.148 339.811 178.543 339.933 179.044 340.072C179.673 340.243 180.185 340.413 180.58 340.584C180.975 340.744 181.311 340.989 181.588 341.32C181.876 341.651 182.025 342.083 182.036 342.616C182.036 343.096 181.903 343.528 181.636 343.912C181.369 344.296 180.991 344.6 180.5 344.824C180.02 345.037 179.465 345.144 178.836 345.144ZM184.843 334.808C184.566 334.808 184.331 334.712 184.139 334.52C183.947 334.328 183.851 334.093 183.851 333.816C183.851 333.539 183.947 333.304 184.139 333.112C184.331 332.92 184.566 332.824 184.843 332.824C185.11 332.824 185.334 332.92 185.515 333.112C185.707 333.304 185.803 333.539 185.803 333.816C185.803 334.093 185.707 334.328 185.515 334.52C185.334 334.712 185.11 334.808 184.843 334.808ZM185.547 336.232V345H184.091V336.232H185.547ZM189.805 337.432V342.6C189.805 343.027 189.896 343.331 190.077 343.512C190.258 343.683 190.573 343.768 191.021 343.768H192.093V345H190.781C189.97 345 189.362 344.813 188.957 344.44C188.552 344.067 188.349 343.453 188.349 342.6V337.432H187.213V336.232H188.349V334.024H189.805V336.232H192.093V337.432H189.805ZM194.609 334.808C194.332 334.808 194.097 334.712 193.905 334.52C193.713 334.328 193.617 334.093 193.617 333.816C193.617 333.539 193.713 333.304 193.905 333.112C194.097 332.92 194.332 332.824 194.609 332.824C194.876 332.824 195.1 332.92 195.281 333.112C195.473 333.304 195.569 333.539 195.569 333.816C195.569 334.093 195.473 334.328 195.281 334.52C195.1 334.712 194.876 334.808 194.609 334.808ZM195.313 336.232V345H193.857V336.232H195.313ZM201.619 345.144C200.797 345.144 200.051 344.957 199.379 344.584C198.717 344.211 198.195 343.683 197.811 343C197.437 342.307 197.251 341.507 197.251 340.6C197.251 339.704 197.443 338.915 197.827 338.232C198.221 337.539 198.755 337.011 199.427 336.648C200.099 336.275 200.851 336.088 201.683 336.088C202.515 336.088 203.267 336.275 203.939 336.648C204.611 337.011 205.139 337.533 205.523 338.216C205.917 338.899 206.115 339.693 206.115 340.6C206.115 341.507 205.912 342.307 205.507 343C205.112 343.683 204.573 344.211 203.891 344.584C203.208 344.957 202.451 345.144 201.619 345.144ZM201.619 343.864C202.141 343.864 202.632 343.741 203.091 343.496C203.549 343.251 203.917 342.883 204.195 342.392C204.483 341.901 204.627 341.304 204.627 340.6C204.627 339.896 204.488 339.299 204.211 338.808C203.933 338.317 203.571 337.955 203.123 337.72C202.675 337.475 202.189 337.352 201.667 337.352C201.133 337.352 200.643 337.475 200.195 337.72C199.757 337.955 199.405 338.317 199.139 338.808C198.872 339.299 198.739 339.896 198.739 340.6C198.739 341.315 198.867 341.917 199.123 342.408C199.389 342.899 199.741 343.267 200.179 343.512C200.616 343.747 201.096 343.864 201.619 343.864ZM212.301 336.072C213.368 336.072 214.232 336.397 214.893 337.048C215.554 337.688 215.885 338.616 215.885 339.832V345H214.445V340.04C214.445 339.165 214.226 338.499 213.789 338.04C213.352 337.571 212.754 337.336 211.997 337.336C211.229 337.336 210.616 337.576 210.157 338.056C209.709 338.536 209.485 339.235 209.485 340.152V345H208.029V336.232H209.485V337.48C209.773 337.032 210.162 336.685 210.653 336.44C211.154 336.195 211.704 336.072 212.301 336.072ZM219.015 334.808C218.738 334.808 218.503 334.712 218.311 334.52C218.119 334.328 218.023 334.093 218.023 333.816C218.023 333.539 218.119 333.304 218.311 333.112C218.503 332.92 218.738 332.824 219.015 332.824C219.282 332.824 219.506 332.92 219.687 333.112C219.879 333.304 219.975 333.539 219.975 333.816C219.975 334.093 219.879 334.328 219.687 334.52C219.506 334.712 219.282 334.808 219.015 334.808ZM219.719 336.232V345H218.263V336.232H219.719ZM226.473 336.072C227.539 336.072 228.403 336.397 229.065 337.048C229.726 337.688 230.057 338.616 230.057 339.832V345H228.617V340.04C228.617 339.165 228.398 338.499 227.961 338.04C227.523 337.571 226.926 337.336 226.169 337.336C225.401 337.336 224.787 337.576 224.329 338.056C223.881 338.536 223.657 339.235 223.657 340.152V345H222.201V336.232H223.657V337.48C223.945 337.032 224.334 336.685 224.825 336.44C225.326 336.195 225.875 336.072 226.473 336.072ZM236.051 336.088C236.808 336.088 237.47 336.253 238.035 336.584C238.611 336.915 239.038 337.331 239.315 337.832V336.232H240.787V345.192C240.787 345.992 240.616 346.701 240.275 347.32C239.934 347.949 239.443 348.44 238.803 348.792C238.174 349.144 237.438 349.32 236.595 349.32C235.443 349.32 234.483 349.048 233.715 348.504C232.947 347.96 232.494 347.219 232.355 346.28H233.795C233.955 346.813 234.286 347.24 234.787 347.56C235.288 347.891 235.891 348.056 236.595 348.056C237.395 348.056 238.046 347.805 238.547 347.304C239.059 346.803 239.315 346.099 239.315 345.192V343.352C239.027 343.864 238.6 344.291 238.035 344.632C237.47 344.973 236.808 345.144 236.051 345.144C235.272 345.144 234.563 344.952 233.923 344.568C233.294 344.184 232.798 343.645 232.435 342.952C232.072 342.259 231.891 341.469 231.891 340.584C231.891 339.688 232.072 338.904 232.435 338.232C232.798 337.549 233.294 337.021 233.923 336.648C234.563 336.275 235.272 336.088 236.051 336.088ZM239.315 340.6C239.315 339.939 239.182 339.363 238.915 338.872C238.648 338.381 238.286 338.008 237.827 337.752C237.379 337.485 236.883 337.352 236.339 337.352C235.795 337.352 235.299 337.48 234.851 337.736C234.403 337.992 234.046 338.365 233.779 338.856C233.512 339.347 233.379 339.923 233.379 340.584C233.379 341.256 233.512 341.843 233.779 342.344C234.046 342.835 234.403 343.213 234.851 343.48C235.299 343.736 235.795 343.864 236.339 343.864C236.883 343.864 237.379 343.736 237.827 343.48C238.286 343.213 238.648 342.835 238.915 342.344C239.182 341.843 239.315 341.261 239.315 340.6ZM250.985 333.848C252.201 333.848 253.252 334.077 254.137 334.536C255.033 334.984 255.716 335.629 256.185 336.472C256.665 337.315 256.905 338.307 256.905 339.448C256.905 340.589 256.665 341.581 256.185 342.424C255.716 343.256 255.033 343.896 254.137 344.344C253.252 344.781 252.201 345 250.985 345H247.513V333.848H250.985ZM250.985 343.8C252.425 343.8 253.524 343.421 254.281 342.664C255.039 341.896 255.417 340.824 255.417 339.448C255.417 338.061 255.033 336.979 254.265 336.2C253.508 335.421 252.415 335.032 250.985 335.032H248.969V343.8H250.985ZM266.826 340.28C266.826 340.557 266.81 340.851 266.778 341.16H259.77C259.823 342.024 260.116 342.701 260.65 343.192C261.194 343.672 261.85 343.912 262.618 343.912C263.247 343.912 263.77 343.768 264.186 343.48C264.612 343.181 264.911 342.787 265.082 342.296H266.65C266.415 343.139 265.946 343.827 265.242 344.36C264.538 344.883 263.663 345.144 262.618 345.144C261.786 345.144 261.039 344.957 260.378 344.584C259.727 344.211 259.215 343.683 258.842 343C258.468 342.307 258.282 341.507 258.282 340.6C258.282 339.693 258.463 338.899 258.826 338.216C259.188 337.533 259.695 337.011 260.346 336.648C261.007 336.275 261.764 336.088 262.618 336.088C263.45 336.088 264.186 336.269 264.826 336.632C265.466 336.995 265.956 337.496 266.298 338.136C266.65 338.765 266.826 339.48 266.826 340.28ZM265.322 339.976C265.322 339.421 265.199 338.947 264.954 338.552C264.708 338.147 264.372 337.843 263.946 337.64C263.53 337.427 263.066 337.32 262.554 337.32C261.818 337.32 261.188 337.555 260.666 338.024C260.154 338.493 259.86 339.144 259.786 339.976H265.322ZM270.204 333.16V345H268.748V333.16H270.204ZM274.461 337.432V342.6C274.461 343.027 274.552 343.331 274.733 343.512C274.914 343.683 275.229 343.768 275.677 343.768H276.749V345H275.437C274.626 345 274.018 344.813 273.613 344.44C273.208 344.067 273.005 343.453 273.005 342.6V337.432H271.869V336.232H273.005V334.024H274.461V336.232H276.749V337.432H274.461ZM277.969 340.584C277.969 339.688 278.151 338.904 278.513 338.232C278.876 337.549 279.372 337.021 280.001 336.648C280.641 336.275 281.351 336.088 282.129 336.088C282.897 336.088 283.564 336.253 284.129 336.584C284.695 336.915 285.116 337.331 285.393 337.832V336.232H286.865V345H285.393V343.368C285.105 343.88 284.673 344.307 284.097 344.648C283.532 344.979 282.871 345.144 282.113 345.144C281.335 345.144 280.631 344.952 280.001 344.568C279.372 344.184 278.876 343.645 278.513 342.952C278.151 342.259 277.969 341.469 277.969 340.584ZM285.393 340.6C285.393 339.939 285.26 339.363 284.993 338.872C284.727 338.381 284.364 338.008 283.905 337.752C283.457 337.485 282.961 337.352 282.417 337.352C281.873 337.352 281.377 337.48 280.929 337.736C280.481 337.992 280.124 338.365 279.857 338.856C279.591 339.347 279.457 339.923 279.457 340.584C279.457 341.256 279.591 341.843 279.857 342.344C280.124 342.835 280.481 343.213 280.929 343.48C281.377 343.736 281.873 343.864 282.417 343.864C282.961 343.864 283.457 343.736 283.905 343.48C284.364 343.213 284.727 342.835 284.993 342.344C285.26 341.843 285.393 341.261 285.393 340.6Z" fill="#808080"/>
<path d="M686.654 190.084C686.102 190.084 685.606 189.988 685.166 189.796C684.734 189.596 684.394 189.324 684.146 188.98C683.898 188.628 683.77 188.224 683.762 187.768H684.926C684.966 188.16 685.126 188.492 685.406 188.764C685.694 189.028 686.11 189.16 686.654 189.16C687.174 189.16 687.582 189.032 687.878 188.776C688.182 188.512 688.334 188.176 688.334 187.768C688.334 187.448 688.246 187.188 688.07 186.988C687.894 186.788 687.674 186.636 687.41 186.532C687.146 186.428 686.79 186.316 686.342 186.196C685.79 186.052 685.346 185.908 685.01 185.764C684.682 185.62 684.398 185.396 684.158 185.092C683.926 184.78 683.81 184.364 683.81 183.844C683.81 183.388 683.926 182.984 684.158 182.632C684.39 182.28 684.714 182.008 685.13 181.816C685.554 181.624 686.038 181.528 686.582 181.528C687.366 181.528 688.006 181.724 688.502 182.116C689.006 182.508 689.29 183.028 689.354 183.676H688.154C688.114 183.356 687.946 183.076 687.65 182.836C687.354 182.588 686.962 182.464 686.474 182.464C686.018 182.464 685.646 182.584 685.358 182.824C685.07 183.056 684.926 183.384 684.926 183.808C684.926 184.112 685.01 184.36 685.178 184.552C685.354 184.744 685.566 184.892 685.814 184.996C686.07 185.092 686.426 185.204 686.882 185.332C687.434 185.484 687.878 185.636 688.214 185.788C688.55 185.932 688.838 186.16 689.078 186.472C689.318 186.776 689.438 187.192 689.438 187.72C689.438 188.128 689.33 188.512 689.114 188.872C688.898 189.232 688.578 189.524 688.154 189.748C687.73 189.972 687.23 190.084 686.654 190.084ZM691.609 182.356C691.401 182.356 691.225 182.284 691.081 182.14C690.937 181.996 690.865 181.82 690.865 181.612C690.865 181.404 690.937 181.228 691.081 181.084C691.225 180.94 691.401 180.868 691.609 180.868C691.809 180.868 691.977 180.94 692.113 181.084C692.257 181.228 692.329 181.404 692.329 181.612C692.329 181.82 692.257 181.996 692.113 182.14C691.977 182.284 691.809 182.356 691.609 182.356ZM692.137 183.424V190H691.045V183.424H692.137ZM696.71 183.316C697.278 183.316 697.774 183.44 698.198 183.688C698.63 183.936 698.95 184.248 699.158 184.624V183.424H700.262V190.144C700.262 190.744 700.134 191.276 699.878 191.74C699.622 192.212 699.254 192.58 698.774 192.844C698.302 193.108 697.75 193.24 697.118 193.24C696.254 193.24 695.534 193.036 694.958 192.628C694.382 192.22 694.042 191.664 693.938 190.96H695.018C695.138 191.36 695.386 191.68 695.762 191.92C696.138 192.168 696.59 192.292 697.118 192.292C697.718 192.292 698.206 192.104 698.582 191.728C698.966 191.352 699.158 190.824 699.158 190.144V188.764C698.942 189.148 698.622 189.468 698.198 189.724C697.774 189.98 697.278 190.108 696.71 190.108C696.126 190.108 695.594 189.964 695.114 189.676C694.642 189.388 694.27 188.984 693.998 188.464C693.726 187.944 693.59 187.352 693.59 186.688C693.59 186.016 693.726 185.428 693.998 184.924C694.27 184.412 694.642 184.016 695.114 183.736C695.594 183.456 696.126 183.316 696.71 183.316ZM699.158 186.7C699.158 186.204 699.058 185.772 698.858 185.404C698.658 185.036 698.386 184.756 698.042 184.564C697.706 184.364 697.334 184.264 696.926 184.264C696.518 184.264 696.146 184.36 695.81 184.552C695.474 184.744 695.206 185.024 695.006 185.392C694.806 185.76 694.706 186.192 694.706 186.688C694.706 187.192 694.806 187.632 695.006 188.008C695.206 188.376 695.474 188.66 695.81 188.86C696.146 189.052 696.518 189.148 696.926 189.148C697.334 189.148 697.706 189.052 698.042 188.86C698.386 188.66 698.658 188.376 698.858 188.008C699.058 187.632 699.158 187.196 699.158 186.7ZM705.312 183.304C706.112 183.304 706.76 183.548 707.256 184.036C707.752 184.516 708 185.212 708 186.124V190H706.92V186.28C706.92 185.624 706.756 185.124 706.428 184.78C706.1 184.428 705.652 184.252 705.084 184.252C704.508 184.252 704.048 184.432 703.704 184.792C703.368 185.152 703.2 185.676 703.2 186.364V190H702.108V183.424H703.2V184.36C703.416 184.024 703.708 183.764 704.076 183.58C704.452 183.396 704.864 183.304 705.312 183.304ZM709.375 186.688C709.375 186.016 709.511 185.428 709.783 184.924C710.055 184.412 710.427 184.016 710.899 183.736C711.379 183.456 711.911 183.316 712.495 183.316C713.071 183.316 713.571 183.44 713.995 183.688C714.419 183.936 714.735 184.248 714.943 184.624V183.424H716.047V190H714.943V188.776C714.727 189.16 714.403 189.48 713.971 189.736C713.547 189.984 713.051 190.108 712.483 190.108C711.899 190.108 711.371 189.964 710.899 189.676C710.427 189.388 710.055 188.984 709.783 188.464C709.511 187.944 709.375 187.352 709.375 186.688ZM714.943 186.7C714.943 186.204 714.843 185.772 714.643 185.404C714.443 185.036 714.171 184.756 713.827 184.564C713.491 184.364 713.119 184.264 712.711 184.264C712.303 184.264 711.931 184.36 711.595 184.552C711.259 184.744 710.991 185.024 710.791 185.392C710.591 185.76 710.491 186.192 710.491 186.688C710.491 187.192 710.591 187.632 710.791 188.008C710.991 188.376 711.259 188.66 711.595 188.86C711.931 189.052 712.303 189.148 712.711 189.148C713.119 189.148 713.491 189.052 713.827 188.86C714.171 188.66 714.443 188.376 714.643 188.008C714.843 187.632 714.943 187.196 714.943 186.7ZM718.985 181.12V190H717.893V181.12H718.985ZM678.767 200.636V201.524H676.487V209H675.395V201.524H673.103V200.636H678.767ZM681.204 203.492C681.396 203.116 681.668 202.824 682.02 202.616C682.38 202.408 682.816 202.304 683.328 202.304V203.432H683.04C681.816 203.432 681.204 204.096 681.204 205.424V209H680.112V202.424H681.204V203.492ZM685.152 201.356C684.944 201.356 684.768 201.284 684.624 201.14C684.48 200.996 684.408 200.82 684.408 200.612C684.408 200.404 684.48 200.228 684.624 200.084C684.768 199.94 684.944 199.868 685.152 199.868C685.352 199.868 685.52 199.94 685.656 200.084C685.8 200.228 685.872 200.404 685.872 200.612C685.872 200.82 685.8 200.996 685.656 201.14C685.52 201.284 685.352 201.356 685.152 201.356ZM685.68 202.424V209H684.588V202.424H685.68ZM690.253 202.316C690.821 202.316 691.317 202.44 691.741 202.688C692.173 202.936 692.493 203.248 692.701 203.624V202.424H693.805V209.144C693.805 209.744 693.677 210.276 693.421 210.74C693.165 211.212 692.797 211.58 692.317 211.844C691.845 212.108 691.293 212.24 690.661 212.24C689.797 212.24 689.077 212.036 688.501 211.628C687.925 211.22 687.585 210.664 687.481 209.96H688.561C688.681 210.36 688.929 210.68 689.305 210.92C689.681 211.168 690.133 211.292 690.661 211.292C691.261 211.292 691.749 211.104 692.125 210.728C692.509 210.352 692.701 209.824 692.701 209.144V207.764C692.485 208.148 692.165 208.468 691.741 208.724C691.317 208.98 690.821 209.108 690.253 209.108C689.669 209.108 689.137 208.964 688.657 208.676C688.185 208.388 687.813 207.984 687.541 207.464C687.269 206.944 687.133 206.352 687.133 205.688C687.133 205.016 687.269 204.428 687.541 203.924C687.813 203.412 688.185 203.016 688.657 202.736C689.137 202.456 689.669 202.316 690.253 202.316ZM692.701 205.7C692.701 205.204 692.601 204.772 692.401 204.404C692.201 204.036 691.929 203.756 691.585 203.564C691.249 203.364 690.877 203.264 690.469 203.264C690.061 203.264 689.689 203.36 689.353 203.552C689.017 203.744 688.749 204.024 688.549 204.392C688.349 204.76 688.249 205.192 688.249 205.688C688.249 206.192 688.349 206.632 688.549 207.008C688.749 207.376 689.017 207.66 689.353 207.86C689.689 208.052 690.061 208.148 690.469 208.148C690.877 208.148 691.249 208.052 691.585 207.86C691.929 207.66 692.201 207.376 692.401 207.008C692.601 206.632 692.701 206.196 692.701 205.7ZM698.363 202.316C698.931 202.316 699.427 202.44 699.851 202.688C700.283 202.936 700.603 203.248 700.811 203.624V202.424H701.915V209.144C701.915 209.744 701.787 210.276 701.531 210.74C701.275 211.212 700.907 211.58 700.427 211.844C699.955 212.108 699.403 212.24 698.771 212.24C697.907 212.24 697.187 212.036 696.611 211.628C696.035 211.22 695.695 210.664 695.591 209.96H696.671C696.791 210.36 697.039 210.68 697.415 210.92C697.791 211.168 698.243 211.292 698.771 211.292C699.371 211.292 699.859 211.104 700.235 210.728C700.619 210.352 700.811 209.824 700.811 209.144V207.764C700.595 208.148 700.275 208.468 699.851 208.724C699.427 208.98 698.931 209.108 698.363 209.108C697.779 209.108 697.247 208.964 696.767 208.676C696.295 208.388 695.923 207.984 695.651 207.464C695.379 206.944 695.243 206.352 695.243 205.688C695.243 205.016 695.379 204.428 695.651 203.924C695.923 203.412 696.295 203.016 696.767 202.736C697.247 202.456 697.779 202.316 698.363 202.316ZM700.811 205.7C700.811 205.204 700.711 204.772 700.511 204.404C700.311 204.036 700.039 203.756 699.695 203.564C699.359 203.364 698.987 203.264 698.579 203.264C698.171 203.264 697.799 203.36 697.463 203.552C697.127 203.744 696.859 204.024 696.659 204.392C696.459 204.76 696.359 205.192 696.359 205.688C696.359 206.192 696.459 206.632 696.659 207.008C696.859 207.376 697.127 207.66 697.463 207.86C697.799 208.052 698.171 208.148 698.579 208.148C698.987 208.148 699.359 208.052 699.695 207.86C700.039 207.66 700.311 207.376 700.511 207.008C700.711 206.632 700.811 206.196 700.811 205.7ZM709.76 205.46C709.76 205.668 709.748 205.888 709.724 206.12H704.468C704.508 206.768 704.728 207.276 705.128 207.644C705.536 208.004 706.028 208.184 706.604 208.184C707.076 208.184 707.468 208.076 707.78 207.86C708.1 207.636 708.324 207.34 708.452 206.972H709.628C709.452 207.604 709.1 208.12 708.572 208.52C708.044 208.912 707.388 209.108 706.604 209.108C705.98 209.108 705.42 208.968 704.924 208.688C704.436 208.408 704.052 208.012 703.772 207.5C703.492 206.98 703.352 206.38 703.352 205.7C703.352 205.02 703.488 204.424 703.76 203.912C704.032 203.4 704.412 203.008 704.9 202.736C705.396 202.456 705.964 202.316 706.604 202.316C707.228 202.316 707.78 202.452 708.26 202.724C708.74 202.996 709.108 203.372 709.364 203.852C709.628 204.324 709.76 204.86 709.76 205.46ZM708.632 205.232C708.632 204.816 708.54 204.46 708.356 204.164C708.172 203.86 707.92 203.632 707.6 203.48C707.288 203.32 706.94 203.24 706.556 203.24C706.004 203.24 705.532 203.416 705.14 203.768C704.756 204.12 704.536 204.608 704.48 205.232H708.632ZM712.293 203.492C712.485 203.116 712.757 202.824 713.109 202.616C713.469 202.408 713.905 202.304 714.417 202.304V203.432H714.129C712.905 203.432 712.293 204.096 712.293 205.424V209H711.201V202.424H712.293V203.492ZM721.678 205.46C721.678 205.668 721.666 205.888 721.642 206.12H716.386C716.426 206.768 716.646 207.276 717.046 207.644C717.454 208.004 717.946 208.184 718.522 208.184C718.994 208.184 719.386 208.076 719.698 207.86C720.018 207.636 720.242 207.34 720.37 206.972H721.546C721.37 207.604 721.018 208.12 720.49 208.52C719.962 208.912 719.306 209.108 718.522 209.108C717.898 209.108 717.338 208.968 716.842 208.688C716.354 208.408 715.97 208.012 715.69 207.5C715.41 206.98 715.27 206.38 715.27 205.7C715.27 205.02 715.406 204.424 715.678 203.912C715.95 203.4 716.33 203.008 716.818 202.736C717.314 202.456 717.882 202.316 718.522 202.316C719.146 202.316 719.698 202.452 720.178 202.724C720.658 202.996 721.026 203.372 721.282 203.852C721.546 204.324 721.678 204.86 721.678 205.46ZM720.55 205.232C720.55 204.816 720.458 204.46 720.274 204.164C720.09 203.86 719.838 203.632 719.518 203.48C719.206 203.32 718.858 203.24 718.474 203.24C717.922 203.24 717.45 203.416 717.058 203.768C716.674 204.12 716.454 204.608 716.398 205.232H720.55ZM722.711 205.688C722.711 205.016 722.847 204.428 723.119 203.924C723.391 203.412 723.763 203.016 724.235 202.736C724.715 202.456 725.251 202.316 725.843 202.316C726.355 202.316 726.831 202.436 727.271 202.676C727.711 202.908 728.047 203.216 728.279 203.6V200.12H729.383V209H728.279V207.764C728.063 208.156 727.743 208.48 727.319 208.736C726.895 208.984 726.399 209.108 725.831 209.108C725.247 209.108 724.715 208.964 724.235 208.676C723.763 208.388 723.391 207.984 723.119 207.464C722.847 206.944 722.711 206.352 722.711 205.688ZM728.279 205.7C728.279 205.204 728.179 204.772 727.979 204.404C727.779 204.036 727.507 203.756 727.163 203.564C726.827 203.364 726.455 203.264 726.047 203.264C725.639 203.264 725.267 203.36 724.931 203.552C724.595 203.744 724.327 204.024 724.127 204.392C723.927 204.76 723.827 205.192 723.827 205.688C723.827 206.192 723.927 206.632 724.127 207.008C724.327 207.376 724.595 207.66 724.931 207.86C725.267 208.052 725.639 208.148 726.047 208.148C726.455 208.148 726.827 208.052 727.163 207.86C727.507 207.66 727.779 207.376 727.979 207.008C728.179 206.632 728.279 206.196 728.279 205.7Z" fill="white"/>
<defs>
<filter id="filter1_f_3218_8222" x="616.5" y="112" width="170" height="170" filterUnits="userSpaceOnUse" color-interpolation-filters="sRGB">
<feFlood flood-opacity="0" result="BackgroundImageFix"/>
<feBlend mode="normal" in="SourceGraphic" in2="BackgroundImageFix" result="shape"/>
<feGaussianBlur stdDeviation="21.25" result="effect1_foregroundBlur_3218_8222"/>
</filter>
<linearGradient id="paint0_linear_3218_8222" x1="155.488" y1="116.459" x2="681" y2="116.459" gradientUnits="userSpaceOnUse">
<stop stop-color="#007BFF"/>
<stop offset="1" stop-color="#00CFFF"/>
</linearGradient>
<linearGradient id="paint1_linear_3218_8222" x1="681" y1="278.366" x2="155.488" y2="278.366" gradientUnits="userSpaceOnUse">
<stop stop-color="#00D084"/>
<stop offset="1" stop-color="#7CFF6A"/>
</linearGradient>
<linearGradient id="paint2_linear_3218_8222" x1="150" y1="197.407" x2="1442" y2="197.407" gradientUnits="userSpaceOnUse">
<stop offset="0.438431" stop-color="#00D4C0"/>
<stop offset="0.787798" stop-color="white"/>
<stop offset="1" stop-color="white" stop-opacity="0"/>
</linearGradient>
</defs>
</svg>
